<mxfile host="app.diagrams.net" agent="Mozilla/5.0 (Windows NT 10.0; Win64; x64) AppleWebKit/537.36 (KHTML, like Gecko) Chrome/128.0.0.0 Safari/537.36" version="24.7.15">
  <diagram name="Страница — 1" id="mCVmQWdnuxB1I5iu7CaG">
    <mxGraphModel dx="1674" dy="1106" grid="0" gridSize="10" guides="1" tooltips="1" connect="1" arrows="1" fold="1" page="0" pageScale="1" pageWidth="1169" pageHeight="827" math="0" shadow="0">
      <root>
        <mxCell id="0" />
        <mxCell id="1" parent="0" />
        <mxCell id="Sqg16ukVcwZhtNygyrtI-3" value="" style="edgeStyle=orthogonalEdgeStyle;rounded=0;orthogonalLoop=1;jettySize=auto;html=1;" edge="1" parent="1" source="Sqg16ukVcwZhtNygyrtI-1" target="Sqg16ukVcwZhtNygyrtI-2">
          <mxGeometry relative="1" as="geometry" />
        </mxCell>
        <mxCell id="Sqg16ukVcwZhtNygyrtI-1" value="Моделирование загрузки в MCU-PTR" style="rounded=1;whiteSpace=wrap;html=1;absoluteArcSize=1;arcSize=14;strokeWidth=2;" vertex="1" parent="1">
          <mxGeometry x="546" y="318" width="147" height="69" as="geometry" />
        </mxCell>
        <mxCell id="Sqg16ukVcwZhtNygyrtI-2" value="Моделирование загрузки в MCU-PTR" style="rounded=1;whiteSpace=wrap;html=1;absoluteArcSize=1;arcSize=14;strokeWidth=2;" vertex="1" parent="1">
          <mxGeometry x="546" y="467" width="147" height="69" as="geometry" />
        </mxCell>
      </root>
    </mxGraphModel>
  </diagram>
</mxfile>
